<?xml version="1.0" encoding="utf-8"?>
<!-- Generator: Adobe Illustrator 19.1.0, SVG Export Plug-In . SVG Version: 6.00 Build 0)  -->
<svg version="1.1" id="Layer_1" xmlns="http://www.w3.org/2000/svg" xmlns:xlink="http://www.w3.org/1999/xlink" x="0px" y="0px"
	 viewBox="-195 405.9 205 30" style="enable-background:new -195 405.9 205 30;" xml:space="preserve">
<style type="text/css">
	.st0{display:none;}
	.st1{fill:#3F464A;}
	.st2{fill:#ED7325;}
</style>
<g id="Background" class="st0">
</g>
<g id="Logo_1_">
	<g id="Letters_2_">
		<path class="st1" d="M-145.2,428.6c0,0.2-0.1,0.4-0.4,0.5c-0.9,0.3-2.7,0.9-5.7,0.9c-6.1,0-8.1-2.8-8.1-9.2s2.1-9.2,8.1-9.2
			c2.9,0,4.7,0.6,5.7,0.9c0.4,0.1,0.4,0.3,0.4,0.5c0,0,0,0.1,0,0.2l-0.3,1.6c-0.1,0.2-0.2,0.3-0.4,0.3c-0.1,0-0.2,0-0.3-0.1
			c-1.1-0.3-2.7-0.7-4.5-0.7c-4.2,0-5.2,2-5.2,6.5s0.9,6.5,5.2,6.5c1.9,0,3.7-0.5,4.5-0.7c0.1,0,0.2-0.1,0.3-0.1
			c0.2,0,0.3,0.1,0.4,0.3l0.3,1.5C-145.2,428.6-145.2,428.6-145.2,428.6z"/>
		<path class="st1" d="M-137,430.1c-5.4,0-6.1-2.9-6.1-6.6s0.7-6.7,6.1-6.7s6.1,2.9,6.1,6.7C-130.9,427.1-131.6,430.1-137,430.1z
			 M-137,419c-2.6,0-2.6,1.5-2.6,4.4c0,2.8,0.1,4.4,2.6,4.4c2.6,0,2.7-1.5,2.7-4.4S-134.4,419-137,419z"/>
		<path class="st1" d="M-124.9,429.8h-2.5c-0.2,0-0.4-0.2-0.4-0.4v-11.7c0-0.2,0.2-0.4,0.4-0.4h2.5c0.2,0,0.4,0.2,0.4,0.4v11.7
			C-124.5,429.7-124.6,429.8-124.9,429.8z"/>
		<path class="st1" d="M-109.7,429.8h-2.5c-0.2,0-0.4-0.2-0.4-0.4v-8.5c0-1.4-0.6-1.9-1.8-1.9c-1.3,0-2.7,0.4-3,0.4v10
			c0,0.2-0.2,0.4-0.4,0.4h-2.5c-0.3,0-0.4-0.2-0.4-0.4V419c0-0.9,0.5-1.2,1.8-1.6c1.2-0.4,3.3-0.7,4.8-0.7c3,0,4.7,0.8,4.7,3.7v9
			C-109.3,429.7-109.4,429.8-109.7,429.8z"/>
		<path class="st1" d="M-86.7,429.8h-2.5c-0.2,0-0.4-0.2-0.4-0.4v-8.5c0-1.4-0.6-1.9-1.9-1.9c-1.3,0-2.7,0.4-3,0.4v10
			c0,0.2-0.1,0.4-0.4,0.4h-2.5c-0.3,0-0.4-0.2-0.4-0.4v-8.5c0-1.4-0.6-1.9-1.8-1.9c-0.9,0-2.3,0.2-3.1,0.4v10c0,0.2-0.2,0.4-0.4,0.4
			h-2.5c-0.3,0-0.4-0.2-0.4-0.4V419c0-0.9,0.5-1.2,1.8-1.6c1.2-0.4,3.3-0.7,4.8-0.7s2.6,0.4,3.2,0.9c0.7-0.3,3-0.9,4.9-0.9
			c3,0,4.7,0.8,4.7,3.7v9C-86.3,429.7-86.5,429.8-86.7,429.8z"/>
		<path class="st1" d="M-77.5,430.1c-5.4,0-6.1-2.9-6.1-6.6s0.7-6.7,6.1-6.7s6.1,2.9,6.1,6.7C-71.5,427.1-72.1,430.1-77.5,430.1z
			 M-77.5,419c-2.6,0-2.6,1.5-2.6,4.4c0,2.8,0.1,4.4,2.6,4.4c2.6,0,2.7-1.5,2.7-4.4C-74.9,420.5-75,419-77.5,419z"/>
		<path class="st1" d="M-61.4,429.6c-0.4,0.2-1.5,0.5-3,0.5c-2.7,0-4.2-1-4.2-3.8v-12.5c0-0.3,0.2-0.5,0.4-0.5l2.4-0.5
			c0.4-0.1,0.5,0.1,0.5,0.4v3.9h3.5c0.2,0,0.4,0.2,0.4,0.4v1.6c0,0.2-0.2,0.4-0.4,0.4h-3.5v6.7c0,1,0.5,1.5,1.7,1.5
			c0.8,0,1.4-0.1,1.8-0.2c0.2-0.1,0.3,0.1,0.4,0.3l0.3,1.3C-61.1,429.2-61.1,429.4-61.4,429.6z"/>
		<path class="st1" d="M-55.5,429.8H-58c-0.2,0-0.4-0.2-0.4-0.4v-11.7c0-0.2,0.2-0.4,0.4-0.4h2.5c0.2,0,0.4,0.2,0.4,0.4v11.7
			C-55.1,429.7-55.3,429.8-55.5,429.8z"/>
		<path class="st1" d="M-45.8,430.1c-5.4,0-6.1-2.9-6.1-6.6s0.7-6.7,6.1-6.7s6.1,2.9,6.1,6.7C-39.8,427.1-40.4,430.1-45.8,430.1z
			 M-45.8,419c-2.6,0-2.6,1.5-2.6,4.4c0,2.8,0.1,4.4,2.6,4.4c2.6,0,2.7-1.5,2.7-4.4S-43.3,419-45.8,419z"/>
		<path class="st1" d="M-26,429.8h-2.5c-0.2,0-0.4-0.2-0.4-0.4v-8.5c0-1.4-0.6-1.9-1.8-1.9c-1.3,0-2.7,0.4-3,0.4v10
			c0,0.2-0.2,0.4-0.4,0.4h-2.5c-0.3,0-0.4-0.2-0.4-0.4V419c0-0.9,0.5-1.2,1.8-1.6c1.2-0.4,3.3-0.7,4.8-0.7c3,0,4.7,0.8,4.7,3.7v9
			C-25.6,429.7-25.7,429.8-26,429.8z"/>
	</g>
	<g id="Elements_1_">
		<path class="st2" d="M-127.6,411.8c-0.2,0-0.4,0.1-0.5,0.3s-0.1,0.4,0,0.6l1.6,2.6c0.1,0.2,0.3,0.3,0.5,0.3s0.4-0.1,0.5-0.3
			l1.5-2.6c0.1-0.2,0.1-0.4,0-0.6c-0.1-0.2-0.3-0.3-0.5-0.3H-127.6z"/>
		<path class="st2" d="M-55.2,415.4c0.2,0,0.4-0.1,0.5-0.3s0.1-0.4,0-0.6l-1.6-2.6c-0.1-0.2-0.3-0.3-0.5-0.3s-0.4,0.1-0.5,0.3
			l-1.5,2.6c-0.1,0.2-0.1,0.4,0,0.6c0.1,0.2,0.3,0.3,0.5,0.3H-55.2z"/>
	</g>
</g>
</svg>
