<?xml version="1.0" encoding="utf-8"?>
<!-- Generator: Adobe Illustrator 19.1.0, SVG Export Plug-In . SVG Version: 6.00 Build 0)  -->
<svg version="1.1" id="Layer_1" xmlns="http://www.w3.org/2000/svg" xmlns:xlink="http://www.w3.org/1999/xlink" x="0px" y="0px"
	 viewBox="0 0 841.9 230.1" style="enable-background:new 0 0 841.9 230.1;" xml:space="preserve">
<style type="text/css">
	.st0{fill:url(#SVGID_1_);}
	.st1{fill:url(#SVGID_2_);}
	.st2{fill:url(#SVGID_3_);}
	.st3{fill:url(#SVGID_4_);}
	.st4{fill:url(#SVGID_5_);}
	.st5{fill:url(#SVGID_6_);}
	.st6{fill:url(#SVGID_7_);}
	.st7{fill:url(#SVGID_8_);}
</style>
<g>
	
		<radialGradient id="SVGID_1_" cx="210.5777" cy="-16281.4736" r="30.9878" gradientTransform="matrix(1 0 0 -1 0 -16151.7803)" gradientUnits="userSpaceOnUse">
		<stop  offset="0" style="stop-color:#A61A1C"/>
		<stop  offset="0.9898" style="stop-color:#8F1715"/>
	</radialGradient>
	<path class="st0" d="M237,149c-0.4-0.1-0.8-0.2-1.2-0.2c-1.7,0.1-3.3,1.2-4.8,1.8c-8.8,3.4-23.4,7.7-30.4-1.3
		c-3.6-4.7-4.3-11.9-4.6-17.6c-0.2-4-0.1-8,0.5-12c0.5-3.8,1.1-7.8,3-11.2c2.3-4.2,6.2-5.4,10.8-5.4c2.3,0,4.2,0.5,5.8,1.6
		c1.6,1.1,2.9,2.5,3.9,4.2c1,1.6,1.7,3.4,2.3,5.2c0.3,0.9,0.6,1.8,0.8,2.8c0.2,0.9,0.6,1.8,0.7,2.7c0,0.6-0.1,1.4-0.8,1.7
		c-0.4,0.2-0.8,0.2-1.2,0.2c-2.7,0.1-5.3,0-8,0c-2.5,0-5.2,0-7.6,0.7c-1.3,0.4-2.8,1.1-3.1,2.6c-0.3,1.6,0.9,3.1,2.5,2.9
		c0.8-0.1,1.5-0.1,2.3-0.2c2.1-0.1,4.2-0.2,6.3-0.3c5-0.2,10-0.4,15-0.6c2.3-0.1,4.6-0.1,6.8-0.5c0.7-0.1,1.4-0.3,1.9-0.8
		c0.4-0.5,0.4-1.1,0.4-1.7c0-2.7-0.4-5.3-1.1-7.9c-0.6-2.4-1.8-4.5-3.1-6.6c-7.1-11.9-22.3-16.6-34.8-10.7
		c-5.2,2.4-9.4,6.6-12.3,11.5c-3,5.2-4,11.7-4.3,17.6c-0.6,9.6,0.6,21.3,7.3,28.8c9.5,10.6,25.4,7.7,36.9,2.6
		c2.8-1.2,5.5-2.7,8.2-4.2c0.9-0.5,1.7-1,2.3-1.8C238.7,151.7,238.9,149.7,237,149z"/>
	
		<radialGradient id="SVGID_2_" cx="304.3955" cy="-16280.8604" r="31.0604" gradientTransform="matrix(1 0 0 -1 0 -16151.7803)" gradientUnits="userSpaceOnUse">
		<stop  offset="0" style="stop-color:#A61A1C"/>
		<stop  offset="0.9898" style="stop-color:#8F1715"/>
	</radialGradient>
	<path class="st1" d="M326.7,162.3c-3.5,0-6.4-2.9-6.4-6.4v-38.8c0-1.5-0.1-3-0.4-4.5c-0.3-1.5-0.8-2.8-1.6-4
		c-0.8-1.2-1.9-2.1-3.4-2.9c-1.5-0.8-3.4-1.1-5.9-1.1c-1.6,0-3.3,0.2-5.1,0.6c-1.8,0.4-3.6,0.9-5.5,1.4c-3.1,0.9-7,1.7-9.1,4.3
		c-1.5,1.8-0.9,5-0.9,7.2c0,6.2,0,12.5,0,18.7c0,6.4,0.1,12.8,0.1,19.2c0,3.5-2.9,6.4-6.4,6.4c0,0-0.1,0-0.1,0
		c-3.5,0-6.4-2.9-6.4-6.4c0-6.8,0-13.7,0-20.5c0-7.1,0-14.3,0-21.4c0-2.3-0.2-4.4,1.4-6.3c1.8-2.2,4.2-3.8,6.7-5.1
		c9.5-4.9,19.7-6.8,30.2-6.8c2.8,0,5.4,0.4,7.7,1.2c2.3,0.8,4.4,2,6,3.6c1.7,1.6,3,3.6,3.9,6c1,2.4,1.4,5.2,1.4,8.4v40.8
		C333.1,159.4,330.3,162.3,326.7,162.3L326.7,162.3z"/>
	
		<radialGradient id="SVGID_3_" cx="395.3233" cy="-16281.8203" r="30.0064" gradientTransform="matrix(1 0 0 -1 0 -16151.7803)" gradientUnits="userSpaceOnUse">
		<stop  offset="0" style="stop-color:#A61A1C"/>
		<stop  offset="0.9898" style="stop-color:#8F1715"/>
	</radialGradient>
	<path class="st2" d="M419.9,153.2c1-2.8,0.4-5.6,0.4-8.7v-31.1c0-3.3-0.4-6.1-1.1-8.3c-0.7-2.2-1.8-4.1-3.2-5.4
		c-1.4-1.4-3.2-2.3-5.2-2.9c-2.1-0.6-4.4-0.9-7-0.9c-2.3,0-4.7,0.2-7.1,0.6c-2.4,0.4-4.8,1-7.1,1.6c-2.3,0.7-4.6,1.4-6.9,2.3
		c-1.7,0.7-4.5,1.3-5.1,3.4c-0.2,0.6,0,1.3,0.1,2c0.2,0.7,0.4,1.5,1.1,1.9c2,1.4,8.1-1.7,10.2-2.3c3.5-0.9,6.6-1.4,9-1.4
		c3.4,0,5.9,0.8,7.3,2.5c1.5,1.7,2.2,4.3,2.2,7.9c0,9.1,0,18.3,0.1,27.4c0,2.3,0.1,4.6,0.2,6.9c0.1,4.3-9.5,5.8-12.6,6.2
		c-3.5,0.5-7.7,0-10.2-2.7c-3.3-3.4-2.8-13.1,0-16.5c1.5-1.8,3.8-2.8,6.1-3.4c2.3-0.6,9.3,0.6,10-2.6c0.3-1.3-0.7-2.6-1.9-3.1
		c-4.3-1.7-10.9,0.1-15.2,1.1c-3.2,0.8-5.9,2-7.9,3.7c-2,1.6-3.5,3.6-4.4,6c-0.9,2.4-1.4,5.2-1.4,8.3c0,6,1.5,10.4,4.6,13.4
		c4.5,4.4,11.9,5,17.9,5.1c8.6,0.2,21.8-1.3,26.5-9.7C419.5,154,419.7,153.6,419.9,153.2z"/>
	
		<radialGradient id="SVGID_4_" cx="484.0322" cy="-16280.7197" r="27.3945" gradientTransform="matrix(1 0 0 -1 0 -16151.7803)" gradientUnits="userSpaceOnUse">
		<stop  offset="0" style="stop-color:#A61A1C"/>
		<stop  offset="0.9898" style="stop-color:#8F1715"/>
	</radialGradient>
	<path class="st3" d="M470.8,162.3c-3.5,0-6.4-2.9-6.4-6.4c0-6,0.1-14.5,0-18.7c-0.3-9.8,0.4-25.1,5.7-30.6
		c4.1-4.3,9.7-6.9,15.4-8.7c3-0.9,6-1.6,9.1-1.9c2.5-0.3,6-1,7.8,1.2c1.3,1.7,1.7,4.2,0.9,6.2c-0.9,2.2-1.8,2.2-3.8,2.4
		c-4.8,0.6-10.1,1.1-14.4,3.5c-5.5,3-7.2,8.6-7.7,14.5c-0.4,4.7-0.2,9.4-0.1,14c0,5,0,10,0,15v3.2
		C477.2,159.4,474.4,162.3,470.8,162.3L470.8,162.3z"/>
	
		<radialGradient id="SVGID_5_" cx="616.6349" cy="-16283.5605" r="31.826" gradientTransform="matrix(1 0 0 -1 0 -16151.7803)" gradientUnits="userSpaceOnUse">
		<stop  offset="0" style="stop-color:#A61A1C"/>
		<stop  offset="0.9898" style="stop-color:#8F1715"/>
	</radialGradient>
	<path class="st4" d="M594.6,97.3c3.5,0,6.3,2.8,6.3,6.3c-0.1,8.2-0.5,21.6-0.5,23.4c0,5,0.2,10.1,0.6,15.1
		c0.3,4.1,1.8,8.3,5.2,10.8c7.2,5.3,17.4,4.2,23.2-2.7c3.6-4.3,3.1-8.7,3.2-14c0-3,0.1-5.9,0.1-8.9c0.1-6.7,0.1-13.4,0.1-20.1
		c0-0.2,0-1.8,0-3.6c0-3.5,2.8-6.3,6.3-6.3l0,0c3.4,0,6.2,2.8,6.3,6.2l0.3,35c0,5.7-0.8,11.7-4.1,16.5c-7.2,10.5-22.4,13-34.1,10.3
		c-6.6-1.5-12.8-5-16.1-11.1c-3.8-7-3.8-14-3.3-21.7c0.2-3.4-0.1-6.9-0.1-10.4c0-1.1-0.1-11.6-0.1-18.7c0-3.5,2.8-6.3,6.3-6.3
		C594.3,97.3,594.4,97.3,594.6,97.3z"/>
	
		<radialGradient id="SVGID_6_" cx="735.9575" cy="-16280.8262" r="41.6608" gradientTransform="matrix(1 0 0 -1 0 -16151.7803)" gradientUnits="userSpaceOnUse">
		<stop  offset="0" style="stop-color:#A61A1C"/>
		<stop  offset="0.9898" style="stop-color:#8F1715"/>
	</radialGradient>
	<path class="st5" d="M736.1,162.3c-3.5,0-6.4-2.9-6.4-6.4v-38.8c0-1.5-0.1-3-0.3-4.5c-0.2-1.5-0.7-2.8-1.4-4
		c-0.7-1.2-1.8-2.1-3.1-2.9s-3.1-1.1-5.3-1.1c-1.5,0-3,0.2-4.7,0.6c-1.6,0.4-3.3,0.9-4.9,1.4c-1.5,0.5-3.3,1.7-4.6,2
		c-0.2,0.2-0.4,0.3-0.6,0.5c-5.4,4.6-3.9,12.3-3.9,18.6c0,7,0,14.1,0,21.1v7.2c0,3.5-2.9,6.4-6.4,6.4l0,0c-3.5,0-6.4-2.9-6.4-6.4
		v-17.7c0-7.2-1.4-14.4,0-21.5c1.2-6.6,5.4-12.2,11-15.7c6.1-3.9,13.2-4.8,20.3-5.2c4.2-0.2,8.5,0,12.5,1.4c1.9,0.7,3.6,1.8,5.1,3.2
		c1,1,2.8,4.5,4,4.8c1.5,0.4,5.5-2.7,6.9-3.4c7.7-4.1,17.1-8.1,25.8-4.9c2.2,0.8,4.1,2,5.7,3.6c5.9,6.1,5.7,15.8,5.1,23.6
		c-0.5,8.2-0.1,16.6-0.1,24.8c0,0.4,0,3.7,0,6.9c0,3.5-2.8,6.3-6.3,6.3h-0.2c-3.5,0-6.4-2.8-6.4-6.3v-11.2c0-10.3,0.6-20.8-0.4-31
		c-0.2-1.9-0.3-3.5-1.4-5.2c-0.7-1.2-1.8-2.1-3.1-2.9s-3.1-1.1-5.3-1.1c-1.5,0-3,0.2-4.7,0.6c-1.7,0.4-3.4,0.9-5,1.5
		c-2.1,0.8-4.6,1.5-6.5,2.8c-3.8,2.6-2.5,9.2-2.5,13.3c0,5.8,0,11.7,0,17.5c0,0.9,0,9.4,0,15.6C742.5,159.4,739.6,162.3,736.1,162.3
		L736.1,162.3z"/>
	<g>
		
			<radialGradient id="SVGID_7_" cx="109.2576" cy="-16264.6201" r="44.7957" gradientTransform="matrix(1 0 0 -1 0 -16151.7803)" gradientUnits="userSpaceOnUse">
			<stop  offset="0" style="stop-color:#A61A1C"/>
			<stop  offset="0.9898" style="stop-color:#8F1715"/>
		</radialGradient>
		<path class="st6" d="M70.7,66.4c-2.9,0.2-3.9,0.9-3.9,3.6c0,1.4,0,2.9,0,4.3c0,4.5,0,8.9,0,13.4c0,12,0,24,0,36
			c0,9.8,0,19.6,0,29.4c0,4.2,0.8,5.3,5,6.1c4.6,0.8,9.4,0.5,14.1,0.6c3.8,0.1,7.5,0.2,11.3,0.2c5.1,0,10.1-0.5,15-1.4
			c4.9-0.9,9.8-2.8,14.6-5.6c4.9-2.8,9.2-6.5,13-11.1c3.8-4.6,6.7-9.8,8.8-15.6c2.1-5.8,3.1-11.7,3.1-17.6c0-6.1-1.1-11.9-3.4-17.3
			c-2.3-5.4-5.6-10.1-10-14.2c-4.4-4.1-9.4-6.9-15-8.6c-5.6-1.7-12.9-2.5-21.7-2.5c-2.5,0.1-5.1,0.1-7.6,0.2c-2,0-10-0.8-7.1,3.8
			c1.7,2.8,6.6,1.6,9.2,1.6c14.3,0,24.8,3.4,31.5,10.3c6.7,6.9,10,16.5,10,29c0,8.5-1.5,16.1-4.6,22.8c-3,6.7-7.6,11.8-13.8,15.3
			c-6.1,3.4-14.4,5.2-24.6,5.2c-5.9,0-11-0.4-15.5-1.3c-0.3-6.4-0.4-11.5-0.4-15.3c-0.1-8.2-0.4-16.4-0.4-24.7c0-9.2,0-18.4,0-27.5
			c0-3.9,0-7.7,0-11.6c0-1.8,0.5-3.9-0.2-5.7c-0.4-1-0.9-1.3-2-1.4c-1.8-0.2-3.5-0.3-5.2-0.1C70.8,66.4,70.8,66.4,70.7,66.4z"/>
	</g>
	
		<radialGradient id="SVGID_8_" cx="539.4763" cy="-16280.7197" r="23.6183" gradientTransform="matrix(1 0 0 -1 0 -16151.7803)" gradientUnits="userSpaceOnUse">
		<stop  offset="0" style="stop-color:#A61A1C"/>
		<stop  offset="0.9898" style="stop-color:#8F1715"/>
	</radialGradient>
	<path class="st7" d="M544.8,161.7h-10.7c-0.7,0-1.2-0.5-1.2-1.2V97.4c0-0.7,0.5-1.2,1.2-1.2h10.7c0.7,0,1.2,0.5,1.2,1.2v63.1
		C546,161.2,545.5,161.7,544.8,161.7z"/>
</g>
</svg>
