<?xml version="1.0" encoding="utf-8"?>
<!-- Generator: Adobe Illustrator 19.1.0, SVG Export Plug-In . SVG Version: 6.00 Build 0)  -->
<svg version="1.1" id="Layer_1" xmlns="http://www.w3.org/2000/svg" xmlns:xlink="http://www.w3.org/1999/xlink" x="0px" y="0px"
	 viewBox="0 0 960 166.9" style="enable-background:new 0 0 960 166.9;" xml:space="preserve">
<style type="text/css">
	.st0{fill:#337AB6;}
</style>
<g>
	<g>
		<path class="st0" d="M77.1,34.1c24,0,37.8,11.8,37.8,32.7c0,22-13.8,34.7-37.8,34.7h-17v26.4H36.3V34.1H77.1z M60.1,82.7h15.8
			c10.4,0,16.5-5.2,16.5-15.1c0-9.8-6-14.7-16.5-14.7H60.1V82.7z"/>
	</g>
	<g>
		<path class="st0" d="M131.4,127.8V34.1h23.8v93.7H131.4z"/>
	</g>
	<g>
		<path class="st0" d="M214.3,91l-12.5,13.8v23H178V34.1h23.8v40.6l35.9-40.6h27.6l-34.8,38.8l37.1,54.9h-28.5L214.3,91z"/>
	</g>
	<g>
		<path class="st0" d="M303.4,110.5l-6.8,17.3H272l40.4-93.7H337l39.5,93.7H351l-6.7-17.3H303.4z M324,57.8l-13.7,34.7h27.1
			L324,57.8z"/>
	</g>
	<g>
		<path class="st0" d="M481.9,80.8c0,27.3-21.7,48.1-50.8,48.1c-28.9,0-50.6-20.6-50.6-48.1c0-27.3,21.7-47.5,50.6-47.5
			C460.2,33.3,481.9,53.6,481.9,80.8z M404.9,80.9c0,15.8,12.2,28,26.5,28c14.5,0,26-12.2,26-28c0-15.8-11.5-27.7-26-27.7
			C416.9,53.2,404.9,65.1,404.9,80.9z"/>
	</g>
	<g>
		<path class="st0" d="M571.5,43.4l-9,18.6c-9.9-5.8-22.4-9.8-30-9.8c-6.2,0-10.3,2.3-10.3,6.8c0,16.2,49.6,7,49.6,40.8
			c0,18.8-16.6,28.7-37.5,28.7c-15.7,0-31.7-5.9-42.9-15l9.2-18.3c9.6,8.4,24.1,14.1,33.9,14.1c7.5,0,12.2-2.8,12.2-8.2
			c0-16.6-49.6-6.7-49.6-39.9C497.2,44,512,33,534.5,33C548.1,33,561.9,37.1,571.5,43.4z"/>
	</g>
	<g>
		<path class="st0" d="M632.2,53.2v74.6h-23.8V53.2h-28V33.9h80.1v19.3H632.2z"/>
	</g>
	<g>
		<path class="st0" d="M765,80.8c0,27.3-21.7,48.1-50.8,48.1c-28.9,0-50.6-20.6-50.6-48.1c0-27.3,21.7-47.5,50.6-47.5
			C743.3,33.3,765,53.6,765,80.8z M688,80.9c0,15.8,12.2,28,26.5,28c14.5,0,26-12.2,26-28c0-15.8-11.5-27.7-26-27.7
			C700.1,53.2,688,65.1,688,80.9z"/>
	</g>
	<g>
		<path class="st0" d="M796.7,117.6c0,6.7-4.7,11.3-11.3,11.3c-6.6,0-11.1-4.6-11.1-11.3c0-6.6,4.6-11.1,11.1-11.1
			C792,106.5,796.7,111.1,796.7,117.6z"/>
	</g>
	<g>
		<path class="st0" d="M839,52.8v21.7H881v18.8H839v34.6h-23.8V34.1h69.5v18.8H839z"/>
	</g>
	<g>
		<path class="st0" d="M900.1,127.8V34.1h23.8v93.7H900.1z"/>
	</g>
</g>
</svg>
